<svg version="1.1" id="Layer_1" xmlns="http://www.w3.org/2000/svg" xmlns:xlink="http://www.w3.org/1999/xlink" x="0px" y="0px"
	 width="100%" viewBox="0 0 496 496" enable-background="new 0 0 496 496" xml:space="preserve">
<path fill="#000000" opacity="1.000000" stroke="none" 
	d="
M497.000000,270.533142 
	C493.520935,272.815338 489.834839,273.340118 485.910553,273.338989 
	C336.938232,273.295685 187.965881,273.309998 38.993549,273.311066 
	C37.328415,273.311066 35.639961,273.402252 34.002426,273.169342 
	C28.617067,272.403473 24.807274,268.186066 24.702112,263.049408 
	C24.589020,257.525177 27.732712,253.693375 33.495209,252.687134 
	C36.102428,252.231888 38.786781,252.031464 41.436165,252.031265 
	C188.908722,252.019791 336.381287,252.038971 483.853851,252.074524 
	C488.173279,252.075577 492.554169,251.984497 496.678314,254.810486 
	C497.000000,260.022095 497.000000,265.044189 497.000000,270.533142 
z"/>
<path fill="#000000" opacity="1.000000" stroke="none" 
	d="
M79.894241,152.930328 
	C104.617638,121.087975 136.907150,100.791840 174.239304,87.934113 
	C191.726562,81.911270 209.638321,77.508957 228.098068,75.716583 
	C230.774048,75.456749 231.740906,74.044449 232.636444,71.891808 
	C238.034912,58.915447 247.336533,51.026989 261.801514,50.718224 
	C276.049164,50.414085 286.566711,57.839291 292.470947,71.908249 
	C293.477936,74.307770 294.734680,75.399368 297.509949,75.763832 
	C346.705475,82.224648 391.466156,99.035675 428.008789,133.732178 
	C450.399811,154.991959 465.798279,180.512329 471.049255,211.433716 
	C472.164764,218.002716 472.644684,224.649002 472.311005,231.326172 
	C472.027954,236.990524 468.650208,240.631622 463.034058,241.232437 
	C461.384583,241.408875 459.705444,241.331207 458.039917,241.331268 
	C328.087921,241.336029 198.135910,241.336960 68.183914,241.337814 
	C67.184288,241.337830 66.184601,241.338806 65.185036,241.329407 
	C56.236938,241.245255 52.757954,237.784180 52.664925,228.982803 
	C52.509716,214.298859 55.714020,200.271805 60.863068,186.618942 
	C65.425438,174.521683 72.043564,163.581268 79.894241,152.930328 
M77.017662,205.449127 
	C76.454178,208.041092 75.816597,210.619553 75.341301,213.227585 
	C73.988762,220.649078 74.014801,220.662308 81.405586,220.662399 
	C202.178711,220.663971 322.951843,220.663269 443.724976,220.662399 
	C444.891022,220.662399 446.059174,220.605240 447.222717,220.656952 
	C450.263397,220.792130 451.017731,219.140869 450.456635,216.521881 
	C449.552490,212.301422 448.807800,208.031265 447.621490,203.889297 
	C439.789642,176.545074 423.150116,155.321030 400.940369,138.297989 
	C366.937744,112.236076 327.940674,99.212044 285.616241,95.350708 
	C277.604858,94.619820 274.222931,91.494957 273.640259,83.638710 
	C273.137054,76.854309 268.350342,71.581764 262.593842,71.471138 
	C256.972290,71.363106 251.955383,76.727341 251.373642,83.468216 
	C250.638840,91.982719 247.801376,94.713135 239.178940,95.352921 
	C237.028656,95.512459 234.902740,95.976624 232.755081,96.198776 
	C199.642014,99.623932 168.690948,109.640083 140.328156,127.119926 
	C110.339279,145.601913 87.328804,169.918549 77.017662,205.449127 
z"/>
<path fill="#000000" opacity="1.000000" stroke="none" 
	d="
M306.402039,340.651001 
	C330.666809,346.096069 354.635681,348.416504 377.752228,338.177551 
	C392.597046,331.602386 405.040344,321.019836 417.614960,310.848053 
	C427.051086,303.215027 435.890930,294.664337 447.103546,289.574036 
	C454.466461,286.231384 461.900085,282.416321 470.504669,284.666229 
	C477.765503,286.564758 482.317993,293.755585 480.934509,301.125702 
	C479.748688,307.442902 477.118378,313.198212 473.684662,318.545654 
	C456.289185,345.636017 434.764099,369.203217 411.363525,391.141632 
	C402.053802,399.869659 390.063965,401.772491 378.171021,403.228363 
	C351.712372,406.467285 325.071960,406.621338 298.463196,407.503357 
	C273.211334,408.340393 247.828186,408.255219 222.815384,412.366638 
	C198.619766,416.343811 175.088501,423.071320 152.663681,433.085541 
	C146.072998,436.028717 141.148346,435.217346 135.778366,430.807343 
	C111.450546,410.828522 86.958969,391.049133 62.538269,371.183319 
	C60.989925,369.923737 59.433796,368.642639 58.068272,367.195160 
	C53.522083,362.376190 53.408524,356.011597 58.340569,351.663666 
	C79.091621,333.370331 101.831268,318.448761 129.573029,313.337891 
	C146.662582,310.189453 164.276062,309.487549 181.264389,312.252869 
	C202.764740,315.752563 223.146439,314.043976 243.588013,307.249390 
	C256.370728,303.000519 269.600861,300.326355 283.046509,298.952087 
	C288.064423,298.439209 293.053711,298.740723 297.905365,300.057434 
	C307.099304,302.552734 311.366272,310.400940 308.826599,319.855103 
	C307.489929,324.831024 306.074646,329.786041 304.767395,334.769531 
	C304.220123,336.855804 303.527679,339.065552 306.402039,340.651001 
M426.365204,330.888641 
	C420.262177,335.517334 414.360779,340.446289 408.012299,344.709412 
	C396.401642,352.506042 384.650330,360.078918 370.638855,363.168732 
	C354.014496,366.834808 337.289032,367.067413 320.519287,364.909973 
	C312.292023,363.851532 304.053802,362.503082 296.281311,359.313538 
	C286.089600,355.131195 281.277435,346.518555 283.197937,335.724304 
	C284.085754,330.734222 285.126373,325.771332 286.174316,320.403717 
	C283.026794,320.242035 280.445099,320.317200 277.796936,320.746185 
	C264.299042,322.932861 251.290482,327.052795 238.126511,330.570770 
	C227.367538,333.446075 216.555084,336.574097 205.299316,335.891724 
	C195.356216,335.288971 185.482361,333.622833 175.547913,332.779938 
	C161.742966,331.608643 147.898972,331.923309 134.210846,333.930237 
	C117.681137,336.353851 103.481941,344.447266 89.926399,353.725769 
	C87.412483,355.446533 84.367279,356.655182 82.586441,359.789978 
	C83.996407,361.079926 85.156441,362.250793 86.426575,363.286652 
	C103.724518,377.394348 121.287109,391.192993 138.213959,405.731995 
	C144.260803,410.925842 149.062210,411.806641 156.663589,408.858490 
	C180.897003,399.459686 205.918213,392.464935 231.887589,389.838715 
	C257.065063,387.292542 282.382935,386.888672 307.659637,386.079773 
	C329.783417,385.371826 351.906677,384.901031 373.955658,382.706207 
	C384.967041,381.610077 394.864502,378.799225 403.049469,370.423676 
	C418.789276,354.317566 433.992126,337.792480 447.413879,319.691345 
	C449.420959,316.984467 451.966919,314.531250 453.150360,310.223755 
	C443.240601,316.367584 435.450623,323.893341 426.365204,330.888641 
z"/>
<path fill="#000000" opacity="1.000000" stroke="none" 
	d="
M81.663200,405.310791 
	C96.906105,417.496094 111.880951,429.445312 126.824524,441.433533 
	C134.399338,447.510315 135.091736,451.768250 129.573227,459.772736 
	C124.374123,467.313873 119.030846,474.758759 113.616898,482.147705 
	C108.233276,489.495300 102.454308,490.209106 95.411430,484.606750 
	C66.862206,461.896851 38.294807,439.209686 9.777679,416.459534 
	C1.143410,409.571381 0.581088,404.992371 6.954563,396.161713 
	C12.121422,389.002869 17.243858,381.810974 22.489100,374.709930 
	C27.772335,367.557404 33.372517,366.775482 40.388523,372.330627 
	C54.102077,383.188843 67.722946,394.164062 81.663200,405.310791 
M68.933258,436.542053 
	C78.423302,444.119751 87.887779,451.729919 97.432762,459.237762 
	C98.763260,460.284271 100.006310,462.147614 102.176468,461.224243 
	C106.757431,459.275116 107.630753,453.063812 103.780899,449.998840 
	C83.868294,434.145813 63.962975,418.283539 44.020161,402.468567 
	C40.934429,400.021545 38.132626,397.146912 34.564316,395.445801 
	C27.015694,402.677307 27.020452,402.956665 34.491669,408.941345 
	C45.788002,417.990173 57.080406,427.043915 68.933258,436.542053 
z"/>
<path fill="#000000" opacity="1.000000" stroke="none" 
	d="
M350.403076,182.252472 
	C342.150940,193.853256 330.939880,199.060455 317.319641,199.312302 
	C307.504700,199.493774 297.682159,199.246918 287.866394,199.403183 
	C284.438904,199.457718 283.068634,198.208130 283.074036,194.792450 
	C283.111237,171.328735 283.048828,147.864868 283.061768,124.401070 
	C283.062927,122.267563 282.926941,119.716293 286.132965,119.740021 
	C298.766327,119.833511 311.528748,118.341370 324.008972,120.288925 
	C356.862610,125.415779 363.859833,160.353912 350.403076,182.252472 
M327.678101,174.214981 
	C334.090302,166.848724 335.548737,156.819687 331.008362,148.765152 
	C326.353668,140.507767 318.307922,139.403702 309.866974,139.346649 
	C307.299988,139.329300 306.315308,140.523331 306.325409,142.996948 
	C306.369476,153.813156 306.367065,164.629639 306.342468,175.445953 
	C306.337280,177.719269 307.345612,178.781647 309.626282,178.847946 
	C315.841614,179.028641 321.997162,179.034439 327.678101,174.214981 
z"/>
<path fill="#000000" opacity="1.000000" stroke="none" 
	d="
M172.687241,135.004196 
	C172.692429,119.657578 172.694778,119.496727 187.544617,119.713768 
	C196.998428,119.851944 206.528015,118.574936 215.901855,120.695335 
	C236.483795,125.351044 248.411362,142.501251 246.206360,164.151382 
	C244.149963,184.342148 227.933731,199.123795 207.502625,199.324997 
	C197.680405,199.421722 187.852814,199.190659 178.035141,199.423798 
	C173.870544,199.522675 172.595551,198.024704 172.628448,193.942139 
	C172.785431,174.463669 172.691818,154.983185 172.687241,135.004196 
M218.553909,145.993805 
	C213.123383,139.927094 205.952194,139.171127 198.453003,139.386505 
	C196.332703,139.447388 195.544098,140.591278 195.569519,142.591583 
	C195.704773,153.234253 195.807648,163.877319 195.939804,174.520020 
	C195.965805,176.613815 196.200333,178.728577 198.955276,178.796936 
	C202.928116,178.895493 206.926346,179.226791 210.804428,177.847595 
	C222.897797,173.546661 226.824738,158.632050 218.553909,145.993805 
z"/>
</svg>